# xmcd CD database file
#
# Track frame offsets:
#	150
#	18990
#	37190
#	56725
#
# Disc length: 965 seconds
#
# Revision: 0
# Processed by: cddbd v1.4PL0 Copyright (c) Steve Scherf et al.
# Submitted via: CDex 1.50
#
DISCID=3003c304
DTITLE=David Sanborn - Bang Bang [CD Single)
DYEAR=1900
DGENRE=Jazz
TTITLE0=Bang Bang (Mardi Gras Edit)
TTITLE1=Bang Bang (Album Edit)
TTITLE2=Bang Bang (Mardi Gras Dance Mix)
TTITLE3=Bang Bang (4x4 Mix)
EXTD=
EXTT0=
EXTT1=
EXTT2=
EXTT3=
PLAYORDER=
